<svg width="144" height="32" viewBox="0 0 144 32" fill="none" xmlns="http://www.w3.org/2000/svg">
<g clip-path="url(#clip0_102_252)">
<path d="M10.3352 -0.00195312L10.1094 0.727065V21.8815L10.3352 22.0956L20.6721 16.2912L10.3352 -0.00195312Z" fill="#C234FF"/>
<path d="M10.3414 -0.0020752L0.00453186 16.2911L10.3414 22.0955V11.8278V-0.0020752Z" fill="#C234FF"/>
<path d="M10.3377 23.9564L10.2104 24.1037V31.6394L10.3377 31.9924L20.6808 18.1549L10.3377 23.9564Z" fill="#C234FF"/>
<path d="M10.3369 31.9924V23.9563L0 18.1549L10.3369 31.9924Z" fill="#C234FF"/>
<path d="M10.3388 22.0968L20.6755 16.2926L10.3388 11.8293V22.0968Z" fill="#C234FF"/>
<path d="M0 16.2926L10.3367 22.0969V11.8293L0 16.2926Z" fill="#C234FF"/>
</g>
<path d="M47.9385 23.6996H36V7H47.9385V10.1296H39.5917V13.6598H47.7614V16.7894H39.5917V20.57H47.9385V23.6996Z" fill="white"/>
<path d="M54.7679 24C53.6381 24 52.7781 23.7163 52.1879 23.1487C51.5978 22.5812 51.3027 21.7634 51.3027 20.6951V14.3859H49.2792V11.6068H51.3027V8.30192H54.5402V11.6068H57.019V14.3859H54.5402V19.8439C54.5402 20.2278 54.6414 20.5449 54.8437 20.7953C55.0461 21.0457 55.3159 21.1708 55.6531 21.1708C56.159 21.1708 56.53 21.054 56.766 20.8203L57.449 23.2239C56.8588 23.7413 55.9651 24 54.7679 24Z" fill="white"/>
<path d="M70.6999 23.6996H67.4876V16.3387C67.4876 15.5376 67.2937 14.9701 66.9059 14.6362C66.5181 14.3024 65.9532 14.1355 65.2112 14.1355C64.0815 14.1355 63.154 14.6112 62.429 15.5626V23.6996H59.2167V7H62.429V13.1841C62.8674 12.6667 63.4576 12.2244 64.1995 11.8571C64.9583 11.4899 65.8014 11.3063 66.7288 11.3063C68.0441 11.3063 69.0305 11.6402 69.6882 12.3078C70.3627 12.9755 70.6999 13.9102 70.6999 15.1119V23.6996Z" fill="white"/>
<path d="M79.6304 24C77.7419 24 76.1821 23.4158 74.9512 22.2474C73.7202 21.079 73.1047 19.5434 73.1047 17.6406C73.1047 15.8547 73.6949 14.3525 74.8753 13.134C76.0725 11.9156 77.5901 11.3063 79.4281 11.3063C81.2492 11.3063 82.7246 11.9239 83.8544 13.1591C84.9842 14.3775 85.5491 15.9799 85.5491 17.9661V18.6672H76.4688C76.5699 19.4683 76.9325 20.136 77.5564 20.6701C78.1803 21.2042 78.9897 21.4713 79.9845 21.4713C80.5241 21.4713 81.1059 21.3628 81.7298 21.1458C82.3705 20.9288 82.8764 20.6367 83.2474 20.2695L84.6638 22.3225C83.4329 23.4408 81.7551 24 79.6304 24ZM82.438 16.514C82.3874 15.8297 82.1092 15.2121 81.6033 14.6613C81.1143 14.1105 80.3892 13.8351 79.4281 13.8351C78.5175 13.8351 77.8093 14.1105 77.3034 14.6613C76.7976 15.1954 76.5025 15.813 76.4182 16.514H82.438Z" fill="white"/>
<path d="M91.0816 23.6996H87.8693V11.6068H91.0816V13.2592C91.5369 12.6917 92.1186 12.2244 92.8268 11.8571C93.535 11.4899 94.2517 11.3063 94.9768 11.3063V14.4109C94.7576 14.3608 94.4625 14.3358 94.0915 14.3358C93.5519 14.3358 92.9786 14.4693 92.3716 14.7364C91.7645 15.0034 91.3345 15.3289 91.0816 15.7128V23.6996Z" fill="white"/>
<path d="M102.725 24C100.837 24 99.2771 23.4158 98.0462 22.2474C96.8152 21.079 96.1997 19.5434 96.1997 17.6406C96.1997 15.8547 96.7899 14.3525 97.9703 13.134C99.1675 11.9156 100.685 11.3063 102.523 11.3063C104.344 11.3063 105.82 11.9239 106.949 13.1591C108.079 14.3775 108.644 15.9799 108.644 17.9661V18.6672H99.5638C99.6649 19.4683 100.027 20.136 100.651 20.6701C101.275 21.2042 102.085 21.4713 103.08 21.4713C103.619 21.4713 104.201 21.3628 104.825 21.1458C105.466 20.9288 105.971 20.6367 106.342 20.2695L107.759 22.3225C106.528 23.4408 104.85 24 102.725 24ZM105.533 16.514C105.482 15.8297 105.204 15.2121 104.698 14.6613C104.209 14.1105 103.484 13.8351 102.523 13.8351C101.613 13.8351 100.904 14.1105 100.398 14.6613C99.8926 15.1954 99.5975 15.813 99.5132 16.514H105.533Z" fill="white"/>
<path d="M122.422 23.6996H119.21V22.1723C118.114 23.3908 116.681 24 114.91 24C113.595 24 112.608 23.6662 111.951 22.9985C111.293 22.3309 110.964 21.3962 110.964 20.1944V11.6068H114.177V18.9426C114.177 20.4281 114.927 21.1708 116.428 21.1708C117.557 21.1708 118.485 20.7118 119.21 19.7938V11.6068H122.422V23.6996Z" fill="white"/>
<path d="M144 23.6996H140.762V16.0633C140.762 14.7781 140.155 14.1355 138.941 14.1355C138.419 14.1355 137.93 14.2774 137.474 14.5611C137.036 14.8449 136.682 15.1703 136.412 15.5376V23.6996H133.174V16.0633C133.174 14.7781 132.567 14.1355 131.353 14.1355C130.847 14.1355 130.367 14.2774 129.912 14.5611C129.456 14.8449 129.094 15.1787 128.824 15.5626V23.6996H125.612V11.6068H128.824V13.1841C129.128 12.7501 129.659 12.3328 130.417 11.9323C131.176 11.515 131.977 11.3063 132.82 11.3063C134.591 11.3063 135.721 12.0407 136.21 13.5096C136.597 12.9087 137.171 12.3913 137.93 11.9573C138.705 11.5233 139.532 11.3063 140.408 11.3063C141.555 11.3063 142.44 11.6151 143.064 12.2327C143.688 12.8336 144 13.7433 144 14.9617V23.6996Z" fill="white"/>
<defs>
<clipPath id="clip0_102_252">
<rect width="20.6829" height="32" fill="white"/>
</clipPath>
</defs>
</svg>